<svg xmlns="http://www.w3.org/2000/svg" width="23" height="29">
    <path fill-rule="evenodd" fill="#FFF" d="M17.56 24.129c-3.116 3.721-5.706 4.632-5.814 4.702-.168.107-.359.16-.55.16.304 0-.383-.053-.55-.16-.109-.07-2.697-.981-5.31-4.703C1.839 20.169.9 15.787.9 11.454.9 5.39 5.17.457 11.196.457c6.179 0 11.206 4.933 11.206 10.997 0 4.333-1.848 8.715-4.842 12.675zm-6.364-21.7c-5.071 0-9.197 4.048-9.197 9.025 0 8.035 7.136 13.835 9.197 15.342 2.06-1.507 9.197-7.307 9.197-15.342 0-4.977-4.126-9.025-9.197-9.025zm0 13.387c-2.452 0-4.447-1.958-4.447-4.364 0-1.992 1.995-3.582 4.447-3.582 2.453 0 4.448 1.59 4.448 3.582 0 2.406-1.995 4.364-4.448 4.364zm0-6.226c-1.344 0-2.438.543-2.438 1.862 0 1.32 1.094 2.392 2.438 2.392 1.345 0 2.439-1.072 2.439-2.392 0-1.319-1.094-1.862-2.439-1.862z"/>
</svg>
