<svg xmlns="http://www.w3.org/2000/svg" width="33" height="23">
    <path fill-rule="evenodd" fill="#FFF" d="M29.944 22.56H3.35c-1.684 0-3.052-1.807-3.052-3.409V3.787C.298 2.185 1.666.882 3.35.882h26.594c1.683 0 3.052 1.303 3.052 2.905v15.364c0 1.602-1.369 3.409-3.052 3.409zm1.017-18.773c0-.534-.456-.968-1.017-.968H3.35c-.561 0-1.018.434-1.018.968v15.364c0 .533.457.968 1.018.968h26.594c.561 0 1.017-.435 1.017-.968V3.787zm-13.64 12.108c-.192.665-.433.242-.673.242-.24 0-.481.423-.673-.242L4.712 6.45c-.422.51-.462-.965-.091-.62.371-1.148 1.014-1.187 1.949-.834l10.078 8.882 10.589-8.881c.421-.353 1.064-.315 1.436.833.767-.345.627 1.13-.091.62l-11.261 9.445z"/>
</svg>
