<svg xmlns="http://www.w3.org/2000/svg" width="29" height="28">
    <path fill-rule="evenodd" fill="#FFF" d="M27.177 13.344c-.565 0-1.022-.437-1.022-.978 0-2.777-.895-5.388-3.178-7.216-2.049-1.64-4.774-3.18-7.671-3.18-.565 0-1.022-.438-1.022-.979 0-.54.457-.871 1.022-.871 3.443 0 6.681 1.178 9.116 3.51 2.435 2.334 3.776 6.03 3.776 8.736 0 .541-.457.978-1.021.978zm-6.957-.978c-.001-2.596-2.07-4.708-4.914-4.708-.565 0-1.022-.439-1.022-.979 0-.542.457-.979 1.022-.979 3.836.001 6.956 2.991 6.957 6.666 0 .541-.458.978-1.021.978-.565.001-1.022-.437-1.022-.978zm-10.955.844a1.048 1.048 0 0 1-1.419-.257.953.953 0 0 1 .267-1.36c.657-.429.761-.624.747-.899-.103-.838-2.655-4.174-3.456-4.509-.233-.083-.463-.08-.744.01-1.084.35-1.847.93-2.204 1.677-.339.709-.308 1.579.089 2.516C4.29 13.877 6.1 16.926 8.7 19.451l.003.003c2.637 2.496 5.823 4.483 9.471 5.908.977.381 2.406.41 2.625.084.78-.342 1.385-1.072 1.751-2.111.093.325.097-.49.009-.715-.349-.765-3.831-3.21-4.715-3.309-.276-.013-.48.086-.929.959-.319.203-.954.318-1.421.012-.204-.305-.584-.914-.266-1.361.381-.532 1.174-1.642 2.731-1.565 1.635.086 5.957 3.128 6.517 4.585.249.643.253 1.323.01 2.016-.55 1.566-1.531 2.696-2.836 3.27-.28.269-1.275.403-1.966.403-.734 0-1.502-.151-2.281-.455-3.893-1.52-7.298-3.645-10.124-6.318-.008-.006-.014-.013-.021-.02-2.794-2.709-5.017-5.977-6.605-9.711C.37 9.676.19 8.269.599 7.56 1.197 5.806 2.377 4.867 4.9 4.34c-.165-.234.545-.23 1.219.011 1.518.535 4.692 4.919 4.781 6.239.08 2.29-1.078 2.256-1.635 2.62z"/>
</svg>
