<svg xmlns="http://www.w3.org/2000/svg" width="165" height="127">
    <path fill-rule="evenodd" fill="#FFF" d="M82.504 86.532c-16.542 0-30-13.212-30-30.093 0-16.594 13.458-30.093 30-30.093 7.446 0 12.688 2.148 17.643 5.774 1.402-3.387 4.732-5.775 8.61-5.775 5.137 0 9.983 4.193 9.983 9.346 0 4.655-4.077 8.525-8.523 9.231a29.998 29.998 0 0 1 2.288 11.517c0 16.881-13.035 30.093-30.001 30.093zm0-54.262c-13.285 0-24.094 10.842-24.094 24.169 0 13.326 10.809 24.168 24.094 24.168 13.286 0 24.095-10.842 24.095-24.168 0-13.327-10.809-24.169-24.095-24.169zm29.663 3.421a3.42 3.42 0 0 0-3.41-3.421 3.42 3.42 0 0 0-3.412 3.421 3.421 3.421 0 0 0 3.412 3.422 3.42 3.42 0 0 0 3.41-3.422zM82.504 72.168c-8.646 0-15.681-7.056-15.681-15.729 0-8.674 7.035-15.73 15.681-15.73 8.647 0 15.682 7.056 15.682 15.73 0 8.673-7.035 15.729-15.682 15.729zm0-25.535c-5.389 0-9.775 4.687-9.775 9.806 0 5.406 4.386 9.805 9.775 9.805 5.39 0 9.775-4.399 9.775-9.805 0-5.119-4.385-9.806-9.775-9.806zm77.165-27.129h-22.503v24.967c0 14.642-5.685 28.41-16.008 38.77C110.833 93.597 97.106 99.3 82.504 99.3c-30.14 0-54.661-24.597-54.661-54.829V41.89c0-2.436 1.322-3.763 2.953-3.763 1.631 0 2.953 1.327 2.953 3.763v2.581c0 26.966 21.872 48.904 48.755 48.904 13.025 0 25.269-5.086 34.476-13.845 9.208-9.717 14.279-21.999 14.279-35.059V19.504h-97.51v7.762a2.958 2.958 0 0 1-2.953 2.962 2.958 2.958 0 0 1-2.953-2.962v-7.762H5.34C2.396 19.504 0 17.1 0 14.145V5.368C0 2.415 2.396.13 5.34.13h116.812c1.631 0 2.953 1.209 2.953 2.845a2.957 2.957 0 0 1-2.953 2.962H5.907v7.643h153.195V5.937h-23.169a2.957 2.957 0 0 1-2.953-2.962c0-1.636 1.322-2.845 2.953-2.845h23.736c2.944 0 6.131 2.285 6.131 5.238v8.777c0 2.955-3.187 5.359-6.131 5.359zM16.704 104.91c.964-1.198 2.007-1.034 2.793-.474.451.322.817.775 1.035 1.33 3.678 8.914 11.906 14.919 21.446 15.884 1.629-.52 2.898.857 2.833 2.492-.065 1.635-1.438 3.358-3.068 2.843-11.88-.474-22.364-7.665-26.403-19.054-.902-1.523-.155-3.242 1.364-3.021zm21.907-1.52c-1.969-1.755-2.43-4.496-1.029-6.471a4.366 4.366 0 0 1 6.101-1.033c1.969 1.405 2.431 4.424 1.03 6.714-1.4 1.382-4.132 1.844-6.102.79zm-13.383-1.005a2.963 2.963 0 0 1 2.164-3.583 2.942 2.942 0 0 1 2.417.464c.557.397.979.988 1.155 1.706 1.334 5.447 6.537 9.159 12.716 8.634 1.012-.152 2.452 1.045 2.604 2.673a2.959 2.959 0 0 1-2.664 3.226c-8.459.798-16.366-4.843-18.392-13.12zm92.943.215c-1.401-2.29-.94-5.309 1.03-6.714a4.366 4.366 0 0 1 6.101 1.033c1.401 1.975.94 4.716-1.03 6.471-1.969 1.054-4.701.592-6.101-.79zm1.645 7.006c5.567.525 10.77-3.187 12.104-8.634 1.04-.718.598-1.309 1.83-1.706 0-.482.873-.677 1.742-.464 2.268.39 2.958 1.995 2.164 3.583-2.026 8.277-9.933 13.918-18.392 13.12a2.958 2.958 0 0 1-2.664-3.226 2.957 2.957 0 0 1 3.216-2.673zm1.09 12.044c9.54-.965 17.957-6.97 21.446-15.884a2.956 2.956 0 0 1 1.035-1.33c.786-.56 1.829-.724 2.793.474 1.518-.221 2.266 1.498 1.67 3.021-4.345 11.389-14.65 18.58-26.709 19.054-1.63.515-3.003-1.208-2.411-2.843.07-1.635.547-3.012 2.176-2.492z"/>
</svg>
