<svg xmlns="http://www.w3.org/2000/svg" width="169" height="177">
    <path fill-rule="evenodd" fill="#FFF" d="M165.263 78.941h-7.694a3.445 3.445 0 0 1-3.444-3.445c0-1.903 1.542-2.996 3.444-2.996h7.694c1.903 0 3.445 1.093 3.445 2.996a3.445 3.445 0 0 1-3.445 3.445zm-15.966 53.892a3.435 3.435 0 0 1-2.436-1.011l-5.44-5.437c-.661-1.005-.661-3.528 0-4.873a3.448 3.448 0 0 1 4.874 0l5.438 5.438c2.067 1.347 2.067 3.527 0 4.872-.133.673-1.554 1.011-2.436 1.011zm-10.695-98.877c-.672.673-1.122 1.009-2.437 1.009a3.435 3.435 0 0 1-2.436-1.009c-1.345-1.345-1.345-3.527 0-4.116l5.439-6.195c1.346-1.345 3.528-1.345 5.242 0 .977 1.346.977 3.527 0 4.872l-5.808 5.439zM108.71 131.87l-2.105 1.007v24.773c0 2.516-2.047 4.563-4.185 4.563H66.941a4.568 4.568 0 0 1-4.563-4.563v-24.795c-19.225-8.515-32.672-27.015-32.672-50.112 0-30.204 24.576-54.778 54.786-54.778 30.209 0 54.786 24.574 54.786 54.778 0 21.517-12.474 40.172-30.568 49.127zm-39.441 23.453h30.445v-4.553H69.269v4.553zm0-12.136h30.445v-7.818a54.646 54.646 0 0 1-15.222 2.153h-.003a54.637 54.637 0 0 1-15.22-2.153v7.818zm25.438-61.598c0-5.634-4.582-10.217-10.216-10.217-5.634 0-10.218 4.583-10.218 10.217 0 5.631 4.584 10.214 10.218 10.214s10.216-4.583 10.216-10.214zM84.492 34.855c-25.672 0-47.895 21.483-47.895 47.888 0 17.614 9.563 33.035 23.767 42.227v-12.03l-.444-4.75c-1.31.117-2.943.274-4.066.274-6.639 0-12.041-4.844-12.041-12.041 0-6.639 5.402-12.04 12.041-12.04 6.64 0 12.042 5.401 12.042 12.04 0 2.931-1.053 5.997-1.936 7.709l2.03 6.411c-.788.332-.734.678-.734 1.026v15.853c4.329 2.558 8.961 2.739 14.194 3.083v-32.16c-8.193-1.598-14.068-8.504-14.068-16.758 0-9.431 8.188-17.105 17.109-17.105 9.434 0 17.108 7.674 17.108 17.105 0 8.254-5.875 15.16-13.664 16.758v32.162a47.56 47.56 0 0 0 14.88-3.521v-15.417c0-.348.052-.694.156-1.027l2.002-6.41c-1.747-1.712-2.8-4.778-2.8-7.708 0-6.64 5.402-12.041 12.043-12.041 6.64 0 12.041 5.401 12.041 12.041 0 7.196-5.401 12.04-12.041 12.04-.276 0-1.316-.157-3.238-.274l-1.272 4.75v10.5c13.603-8.456 22.679-23.536 22.679-40.697 0-26.405-21.484-47.888-47.893-47.888zM61.6 96.424c0-2.84-2.904-5.151-5.745-5.151-2.705 0-5.152 2.311-5.152 5.151s2.447 5.15 5.152 5.15c2.841 0 5.745-2.31 5.745-5.15zm48.04-.001c0 2.84 1.735 5.151 4.576 5.151 3.334 0 5.15-2.311 5.15-5.151 0-2.839-1.816-5.15-5.15-5.15-2.841 0-4.576 2.311-4.576 5.15zm.863-35.589c-.379.134-.767.496-1.147.496-1.42 0-2.751-1.183-3.249-2.598l.693-.074c-1.352-1.795-.412-3.763 1.382-4.395a3.445 3.445 0 0 1 4.396 2.102l.027.074a3.445 3.445 0 0 1-2.102 4.395zm-14.089-8.246c-7.684-3.628-17.105-4.291-24.584.524a3.412 3.412 0 0 1-1.861.55c-1.132 0-2.241-.558-2.289-.842-1.3-2.339-1.18-4.47.42-5.501 9.673-5.409 21.853-6.488 31.792-.679 1.643.961 2.988 3.071 1.236 4.713-.96 1.642-2.548 2.196-4.714 1.235zM82.568 15.487c-1.903 0-3.445-1.543-3.445-3.077V4.35A3.445 3.445 0 0 1 82.568.905c1.903 0 3.572 1.542 3.572 3.445v8.06c0 1.534-1.669 3.077-3.572 3.077zM28.971 34.965c-.081 0-1.763-.336-2.437-1.009l-4.584-5.439c-2.201-1.345-2.201-3.526 0-4.872.49-1.345 2.672-1.345 4.018 0l5.439 6.195c1.346.589 1.346 2.77 0 4.116a3.433 3.433 0 0 1-2.436 1.009zm-5.256 86.547c1.895 1.345 1.895 3.868 0 4.873l-5.439 5.437a3.439 3.439 0 0 1-2.437 1.011c-.882 0-1.079-.338-2.436-1.011-.823-1.345-.823-3.525 0-4.872l5.44-5.438a3.444 3.444 0 0 1 4.872 0zM11.413 78.941H3.721a3.447 3.447 0 0 1-3.446-3.445c0-1.903 1.544-2.996 3.446-2.996h7.692c1.903 0 3.445 1.093 3.445 2.996a3.445 3.445 0 0 1-3.445 3.445zm54.409 90.668h23.129c1.904 0 3.446 1.542 3.446 3.931 0 1.416-1.543 2.96-3.446 2.96H65.822c-1.902 0-3.444-1.544-3.444-2.96 0-2.389 1.542-3.931 3.444-3.931zm36.178.108c1.794.113 3.762.523 4.396 2.102l.026.073c1.128 1.796-.309 3.762-2.103 4.396a3.449 3.449 0 0 1-4.396-2.102l-.025-.075a3.443 3.443 0 0 1 2.102-4.394z"/>
</svg>
