<svg xmlns="http://www.w3.org/2000/svg" width="158" height="150">
    <path fill-rule="evenodd" fill="#FFF" d="M154.286 128.943a3.047 3.047 0 0 1 3.056 3.039v14.308a3.047 3.047 0 0 1-3.056 3.039h-61.42a3.047 3.047 0 0 1-3.056-3.039 3.048 3.048 0 0 1 3.056-3.039h58.364v-8.041H6.999v8.041h58.365c2.146 0 3.056 1.361 3.056 3.039 0 1.679-.91 3.039-3.056 3.039H3.943a3.047 3.047 0 0 1-3.055-3.039v-14.308a3.047 3.047 0 0 1 3.055-3.039h11.331V59.425L5.445 64.94a3.068 3.068 0 0 1-3.043-.023 3.033 3.033 0 0 1-1.514-2.624V45.865c0-1.097.594-2.109 1.554-2.647L77.613 1.38c.932-.865 2.071-.865 3.003 0l75.172 41.838a3.035 3.035 0 0 1 1.554 2.647v16.428c0 1.08-.577 2.08-1.515 2.624a3.062 3.062 0 0 1-3.043.023l-9.829-5.516v69.519h11.331zm-132.9 0h115.457V55.995L79.115 23.604 21.386 55.995v72.948zM151.23 57.89V47.639L79.115 7.175 6.999 47.64v10.25l70.614-40.423c1.177-.261.984.283 1.502.283s1.035-.544 1.501-.283L151.23 57.89zM81.377 53.7c2.545 2.157 5.544 4.415 8.915 6.084a30.038 30.038 0 0 0 11.601 3.074 3.046 3.046 0 0 1 2.873 3.034V81.91c.052 9.068-4.822 18.928-12.316 24.899l-11.474 8.456a3.064 3.064 0 0 1-3.723 0l-11.082-8.466c-7.886-5.961-12.76-15.821-12.708-25.039V65.892a3.047 3.047 0 0 1 2.873-3.034 30.028 30.028 0 0 0 11.601-3.074c3.371-1.668 6.371-3.927 8.915-6.084.58-1.265 1.401-.96 2.263-.96.861 0 1.682-.305 2.262.96zM70.659 65.226a36.107 36.107 0 0 1-11.085 3.417V81.92c-.042 7.218 3.908 15.212 10.308 20.05l9.233 7.26 9.219-7.251c6.413-4.847 10.363-12.841 10.321-20.871V68.642c-3.856-.534-6.835-1.679-11.085-3.417a36.158 36.158 0 0 1-8.455-5.798 36.138 36.138 0 0 1-8.456 5.799zM88.23 76.577c1.142 1.009 1.412 2.914.397 4.255l-6.747 9.96c-1.282.648-2.013 1.074-2.29 1.183-.669.019-.806.325-.943.325-.67 0-1.325-.516-1.861-.926l-6.603-5.041c-1.338-1.022-1.59-2.93-.563-3.613 1.028-1.98 2.946-2.23 4.285-1.208l4.705 3.173 5.134-7.509c1.016-1.34 2.931-1.609 4.486-.599zm-9.115 66.674a3.047 3.047 0 0 1 3.055 3.039 3.047 3.047 0 0 1-3.055 3.039c-1.688 0-2.525-1.361-2.525-3.039 0-1.679.837-3.039 2.525-3.039z"/>
</svg>
